<svg width="27" height="33" viewBox="0 0 27 33" fill="none" xmlns="http://www.w3.org/2000/svg">
<path d="M24.59 7.52339L24.0366 7.37512L24.0317 7.39368C24.2968 7.46474 24.508 7.63648 24.6352 7.85681C24.7624 8.07714 24.8056 8.3459 24.7345 8.61107L18.5028 31.8681C18.4318 32.1333 18.26 32.3445 18.0397 32.4717C17.8193 32.5989 17.5506 32.642 17.2854 32.571L17.2804 32.5896L17.8338 32.7378C18.3743 32.8826 18.9299 32.5619 19.0747 32.0214L25.3064 8.76432C25.4512 8.2238 25.1305 7.66822 24.59 7.52339Z" fill="#2C8CFA" fill-opacity="0.75"/>
<path d="M24.0366 7.37504L19.8764 6.26031L19.8744 6.27036C19.8708 6.28813 19.8678 6.30553 19.8632 6.32261L19.5839 7.36487L22.8817 8.24849L23.5629 8.43102L23.4553 8.83256L23.8359 8.93453L17.6711 31.9416L1.33355 27.564L1.44114 27.1625L1.06054 27.0605L7.22527 4.05337L11.5848 5.2215L11.8641 4.17924C11.8686 4.16218 11.8747 4.14558 11.8805 4.1284L11.8838 4.11868L8.2882 3.15526L7.73487 3.00699C7.19435 2.86216 6.63877 3.18293 6.49393 3.72345L0.262224 26.9805C0.117395 27.521 0.438166 28.0766 0.978685 28.2214L1.53201 28.3697L17.2804 32.5895C17.821 32.7343 18.3765 32.4135 18.5214 31.873L24.7531 8.61597C24.8979 8.07545 24.5771 7.51987 24.0366 7.37504Z" fill="white"/>
<path d="M23.4603 8.81408L17.3982 31.4382L16.717 31.2557L7.88105 28.8881L1.42264 27.1576L1.31007 27.5777L17.6848 31.9652L23.8594 8.92103L23.4603 8.81408Z" fill="#AEBDC7"/>
<path d="M19.5889 7.34635L19.5864 7.35563L19.1607 8.9444C19.1536 8.97078 19.1452 8.99646 19.1358 9.02157C19.1325 9.03031 19.1283 9.03901 19.1244 9.04845C19.1179 9.06406 19.1115 9.07952 19.1043 9.09414C19.0991 9.10497 19.0929 9.11553 19.0869 9.12661C19.0802 9.13869 19.0739 9.15067 19.0669 9.16196C19.0598 9.17365 19.0519 9.18498 19.044 9.19656C19.0374 9.20617 19.031 9.21568 19.0242 9.22468C19.0151 9.23685 19.0054 9.2486 18.9956 9.26035C18.9893 9.26777 18.9832 9.27509 18.9769 9.28207C18.9657 9.29452 18.954 9.30649 18.9421 9.31823L18.9255 9.33408C18.9121 9.34653 18.8983 9.3586 18.8841 9.37018L18.8714 9.38013C18.8557 9.39239 18.8397 9.4041 18.8232 9.41517L18.82 9.41735C18.6295 9.54388 18.3882 9.59178 18.15 9.52796L13.9592 8.40504L12.1933 7.93187L12.1897 7.93856C11.23 9.71478 10.5325 11.609 10.0055 13.5758C9.38163 15.9042 8.99667 18.3343 8.69891 20.7909L8.6979 20.7992L17.8583 23.2537L17.7439 23.6807L8.64518 21.2427L8.64391 21.2537C8.62768 21.3928 8.61166 21.5319 8.59587 21.6711L8.5949 21.6793L13.583 23.0159L13.4686 23.4428L8.54523 22.1236L8.54401 22.1348C8.48652 22.6571 8.43162 23.1799 8.37801 23.7027L8.37716 23.7108L10.4556 24.2677L10.3412 24.6947L8.33177 24.1562L8.33065 24.1675C8.31648 24.3071 8.30234 24.4468 8.28827 24.5864L8.28744 24.5945L16.8819 26.8974L16.7675 27.3243L8.2425 25.0401L8.2414 25.0513C8.22732 25.191 8.21324 25.3306 8.19914 25.4702L8.19831 25.4783L16.655 27.7443L16.5406 28.1712L8.15312 25.9238L8.15201 25.9351C8.13777 26.0747 8.12345 26.2143 8.10909 26.3538L8.10823 26.3619L12.3798 27.5065L12.2654 27.9334L8.06193 26.8071L8.06077 26.8183C8.015 27.2545 7.9681 27.6897 7.91913 28.1233C7.89423 28.3802 7.87546 28.6386 7.86891 28.8971L7.86869 28.9046L16.7212 31.2767L22.8959 8.23246L19.5889 7.34635Z" fill="#F6F6F6"/>
<path d="M7.88815 28.8976C7.89468 28.6397 7.91341 28.3818 7.9383 28.1254C7.98727 27.6918 8.03413 27.2566 8.07991 26.8204L8.08074 26.8122L7.14847 26.5624L7.26287 26.1354L8.12709 26.367L8.12825 26.3558C8.14263 26.2163 8.15694 26.0767 8.17118 25.9371L8.172 25.9289L7.3754 25.7155L7.48981 25.2885L8.21718 25.4834L8.21833 25.4722C8.23244 25.3326 8.24651 25.193 8.26059 25.0533L8.2614 25.0451L7.60235 24.8685L7.71675 24.4416L8.30634 24.5996L8.30746 24.5883C8.32153 24.4487 8.33567 24.3091 8.34983 24.1695L8.35065 24.1613L7.8293 24.0216L7.9437 23.5947L8.39606 23.7159L8.39722 23.7047C8.45081 23.182 8.50571 22.6591 8.56321 22.1369L8.56411 22.1287L8.35176 22.0718L8.46617 21.6448L8.61379 21.6844L8.61505 21.6733C8.63083 21.5341 8.64684 21.395 8.66308 21.256L8.66403 21.2477L8.5787 21.2249L8.6931 20.7979L8.70606 20.8014L8.71672 20.8043L8.71807 20.7933C9.01584 18.3371 9.40063 15.9079 10.0242 13.5808C10.5509 11.6151 11.2479 9.72233 12.2067 7.94772L12.2124 7.93702L11.7452 7.81181C11.525 7.75282 11.3497 7.61022 11.2441 7.4273C11.1385 7.24437 11.1027 7.02123 11.1616 6.80107L11.5898 5.20301L7.21174 4.02991L1.03706 27.0741L1.42695 27.1786L7.88785 28.9098L7.88815 28.8976Z" fill="#E9E9E9"/>
<path d="M10.5554 10.5036C10.5863 10.388 10.5829 10.2705 10.5525 10.1626L10.5482 10.1471L10.0165 10.6588L9.5992 12.2162C9.58696 12.2612 9.55938 12.2949 9.52196 12.3168C9.48436 12.3382 9.44139 12.3452 9.39636 12.3333L7.56019 11.8413C7.51524 11.8291 7.48153 11.8015 7.45959 11.7641C7.43822 11.7265 7.43116 11.6835 7.44306 11.6385L7.93506 9.80234C7.94728 9.75739 7.97488 9.72368 8.0123 9.70176C8.04989 9.68039 8.09287 9.67335 8.13792 9.68525L9.90006 10.1574L10.2788 9.79287L10.2682 9.78639C10.2166 9.75479 10.1599 9.72965 10.0985 9.71318L8.26226 9.22117C8.09035 9.17513 7.91426 9.20325 7.772 9.28571C7.62948 9.36769 7.51705 9.50607 7.47111 9.67752L7.47098 9.67802L7.47096 9.67824L6.97907 11.514L6.97886 11.5146C6.93293 11.686 6.96106 11.8621 7.04356 12.0044C7.12555 12.1469 7.26397 12.2593 7.43584 12.3054L9.27202 12.7974C9.44381 12.8434 9.6199 12.8153 9.76223 12.7329C9.90443 12.651 10.0166 12.513 10.0627 12.342L10.0629 12.3418L10.5552 10.5044L10.5554 10.5036Z" fill="#503949"/>
<path d="M14.0889 10.7824L14.0797 10.7799L11.5399 10.0994L11.4155 10.5634L13.9646 11.2465L14.0889 10.7824Z" fill="#503949"/>
<path d="M11.3129 10.9463L11.1886 11.4104L11.1979 11.4128L20.3909 13.8761L20.5153 13.4121L11.3129 10.9463Z" fill="#503949"/>
<path d="M10.9617 12.2573L10.9709 12.2598L20.164 14.723L20.2884 14.259L11.086 11.7932L10.9617 12.2573Z" fill="#503949"/>
<path d="M16.0131 14.0212L16.0039 14.0187L10.8591 12.6401L10.7347 13.1042L15.8888 14.4852L16.0131 14.0212Z" fill="#503949"/>
<path d="M9.35215 14.9941C9.38308 14.8785 9.37961 14.761 9.3493 14.6531L9.34492 14.6376L8.81324 15.1493L8.39594 16.7067C8.38371 16.7517 8.35612 16.7854 8.31871 16.8073C8.28111 16.8287 8.23814 16.8357 8.1931 16.8238L6.35693 16.3318C6.31198 16.3196 6.27828 16.292 6.25634 16.2546C6.23497 16.217 6.22791 16.174 6.23981 16.129L6.73181 14.2928C6.74404 14.2479 6.77163 14.2142 6.80906 14.1922C6.84664 14.1709 6.88963 14.1638 6.93468 14.1757L8.69681 14.6479L9.0756 14.2833L9.065 14.2769C9.01338 14.2453 8.95669 14.2201 8.89521 14.2037L7.05901 13.7117C6.88711 13.6656 6.71101 13.6937 6.56875 13.7762C6.42624 13.8582 6.3138 13.9966 6.26786 14.168L6.26773 14.1685L6.26772 14.1687L5.77582 16.0045L5.77562 16.0051C5.72968 16.1765 5.75781 16.3526 5.84031 16.4949C5.9223 16.6374 6.06072 16.7498 6.23259 16.7959L8.06877 17.2879C8.24056 17.3339 8.41665 17.3058 8.55899 17.2233C8.70119 17.1415 8.81337 17.0035 8.8595 16.8325L8.85964 16.8323L9.35198 14.9949L9.35215 14.9941L9.35215 14.9941Z" fill="#503949"/>
<path d="M12.8857 15.273L12.8764 15.2705L10.3366 14.59L10.2123 15.0541L12.7613 15.7371L12.8857 15.273Z" fill="#503949"/>
<path d="M9.98534 15.901L9.99462 15.9034L19.1877 18.3667L19.312 17.9027L10.1097 15.4369L9.98534 15.901Z" fill="#503949"/>
<path d="M9.75841 16.7479L9.76769 16.7504L18.9608 19.2136L19.0851 18.7496L9.88276 16.2838L9.75841 16.7479Z" fill="#503949"/>
<path d="M14.8099 18.5118L14.8006 18.5093L9.65583 17.1307L9.53149 17.5948L14.6855 18.9758L14.8099 18.5118Z" fill="#503949"/>
<path d="M8.14896 19.4847C8.1799 19.3691 8.17643 19.2516 8.14612 19.1436L8.14174 19.1282L7.61006 19.6399L7.19276 21.1973C7.18053 21.2422 7.15294 21.276 7.11553 21.2979C7.07793 21.3193 7.03496 21.3263 6.98993 21.3144L5.15376 20.8224C5.10881 20.8102 5.0751 20.7826 5.05316 20.7452C5.03179 20.7076 5.02473 20.6646 5.03663 20.6196L5.52862 18.7834C5.54085 18.7385 5.56844 18.7048 5.60587 18.6828C5.64345 18.6615 5.68644 18.6544 5.73149 18.6663L7.49363 19.1385L7.87241 18.774L7.86181 18.7675C7.81019 18.7359 7.7535 18.7107 7.69202 18.6943L5.85582 18.2023C5.68392 18.1562 5.50782 18.1843 5.36557 18.2668C5.22305 18.3488 5.11062 18.4872 5.06468 18.6586L5.06454 18.6591L5.06453 18.6593L4.57264 20.4951L4.57243 20.4957C4.5265 20.6671 4.55463 20.8432 4.63713 20.9855C4.71911 21.128 4.85754 21.2404 5.0294 21.2865L6.86559 21.7785C7.03737 21.8245 7.21346 21.7964 7.3558 21.7139C7.498 21.6321 7.61019 21.4941 7.65631 21.3231L7.65646 21.3229L8.14879 19.4855L8.14896 19.4847Z" fill="#503949"/>
<path d="M11.6824 19.7635L11.6732 19.761L9.13337 19.0804L9.00902 19.5445L11.5581 20.2276L11.6824 19.7635Z" fill="#503949"/>
<path d="M8.7821 20.3914L8.79137 20.3939L17.9844 22.8572L18.1088 22.3931L8.90644 19.9274L8.7821 20.3914Z" fill="#503949"/>
<path d="M8.68873 20.7768L8.67945 20.7743L8.55511 21.2384L8.56438 21.2408L8.65098 21.2641L17.7575 23.7041L17.8818 23.2401L8.71096 20.7827L8.68873 20.7768Z" fill="#503949"/>
<path d="M8.55118 22.145L13.4823 23.4663L13.6066 23.0022L8.60798 21.6629L8.45259 21.6212L8.32824 22.0853L8.33752 22.0878L8.55118 22.145Z" fill="#503949"/>
<path d="M6.94571 23.9753C6.97665 23.8597 6.97318 23.7422 6.94287 23.6343L6.9385 23.6188L6.40681 24.1305L5.98951 25.6879C5.97728 25.7329 5.94969 25.7666 5.91228 25.7885C5.87468 25.8099 5.8317 25.8169 5.78667 25.805L3.9505 25.313C3.90555 25.3008 3.87185 25.2732 3.84991 25.2358C3.82854 25.1982 3.82148 25.1552 3.83338 25.1102L4.32538 23.274C4.3376 23.2291 4.3652 23.1954 4.40262 23.1734C4.44021 23.1521 4.48319 23.145 4.52824 23.1569L6.29038 23.6291L6.66917 23.2646L6.65857 23.2581C6.60696 23.2265 6.55026 23.2013 6.48877 23.1849L4.65258 22.6929C4.48068 22.6468 4.30458 22.6749 4.16232 22.7574C4.0198 22.8394 3.90737 22.9778 3.86143 23.1492L3.8613 23.1497L3.86128 23.1499L3.36939 24.9857L3.36918 24.9863C3.32325 25.1577 3.35138 25.3338 3.43388 25.4761C3.51587 25.6186 3.65429 25.731 3.82616 25.7771L5.66234 26.2691C5.83413 26.3151 6.01022 26.287 6.15256 26.2045C6.29476 26.1227 6.40695 25.9847 6.45307 25.8137L6.45322 25.8135L6.94554 23.9761L6.94572 23.9753L6.94571 23.9753Z" fill="#503949"/>
<path d="M8.33779 24.1777L10.3549 24.7181L10.4792 24.2541L8.39014 23.6943L7.93013 23.571L7.80578 24.0351L7.81505 24.0376L8.33779 24.1777Z" fill="#503949"/>
<path d="M7.7032 24.418L7.57885 24.882L7.58813 24.8845L8.24857 25.0615L16.7812 27.3478L16.9055 26.8837L8.30041 24.578L7.7032 24.418Z" fill="#503949"/>
<path d="M7.47627 25.2649L7.35192 25.729L7.3612 25.7315L8.15918 25.9453L16.5543 28.1947L16.6786 27.7307L8.21128 25.4618L7.47627 25.2649Z" fill="#503949"/>
<path d="M7.24928 26.1118L7.12493 26.5759L7.13421 26.5784L8.06786 26.8285L12.279 27.9569L12.4033 27.4928L8.12116 26.3454L7.24928 26.1118Z" fill="#503949"/>
<path d="M10.0318 10.6708L10.55 10.172L10.7633 9.96676L10.4302 9.6206L10.2566 9.7876L9.89074 10.1398L8.72321 11.2634L8.33727 10.4814L7.91961 10.6876L7.89715 10.6751L8.5831 12.065L10.0318 10.6708Z" fill="#2C8CFA" fill-opacity="0.75"/>
<path d="M9.05335 14.2782L8.68744 14.6304L7.51991 15.754L7.13398 14.972L6.71631 15.1782L6.69383 15.1657L7.3798 16.5557L8.82852 15.1614L9.34674 14.6627L9.56003 14.4574L9.22686 14.1112L9.05335 14.2782Z" fill="#2C8CFA" fill-opacity="0.75"/>
<path d="M7.85017 18.7688L7.48426 19.121L6.31673 20.2446L5.9308 19.4626L5.51313 19.6688L5.49065 19.6563L6.17659 21.0462L7.62534 19.652L8.14356 19.1532L8.35685 18.948L8.02368 18.6018L7.85017 18.7688Z" fill="#2C8CFA" fill-opacity="0.75"/>
<path d="M6.8135 23.0991L6.64689 23.2594L6.28098 23.6116L5.11345 24.7352L4.72752 23.9532L4.30985 24.1594L4.28734 24.1469L4.97333 25.5368L6.42205 24.1426L6.94028 23.6439L7.15357 23.4386L6.8204 23.0924L6.8135 23.0991Z" fill="#2C8CFA" fill-opacity="0.75"/>
<path d="M22.8774 8.22742L16.7027 31.2716L16.712 31.2741L17.4118 31.4616L23.4764 8.82823L23.5864 8.41741L22.8774 8.22742Z" fill="white"/>
<path d="M19.8932 6.27411C19.98 5.84097 19.7173 5.40923 19.2846 5.29327L18.7276 5.14403C18.7033 3.90689 17.8692 2.78065 16.6155 2.44469C16.5694 2.43233 16.5234 2.42264 16.4776 2.41274L16.4723 2.43115C17.7566 2.90388 18.5317 4.00896 18.2611 5.26743L18.2594 5.27556L18.2672 5.27848C18.5609 5.38714 18.8347 5.44308 19.0552 5.53058C19.2759 5.61828 19.4424 5.73599 19.527 5.96956C19.5536 6.04261 19.5543 6.18412 19.5352 6.36754C19.4781 6.91848 19.2473 7.85153 19.0624 8.54158C18.9275 9.04476 18.8171 9.41876 18.8159 9.42305L18.8089 9.44927L18.8332 9.43157C18.9847 9.33035 19.1019 9.17849 19.1617 9.00635C19.1682 8.98756 19.1741 8.96854 19.1792 8.94931L19.605 7.36053L19.8817 6.32753C19.8866 6.30941 19.8897 6.29156 19.8932 6.27411Z" fill="#D6D6D6"/>
<path d="M19.4472 7.02649C19.4968 6.78071 19.5352 6.5541 19.5543 6.36951C19.5734 6.18477 19.5737 6.04273 19.5451 5.96302C19.4586 5.72315 19.2852 5.60086 19.0624 5.5127C18.8414 5.42513 18.5707 5.36929 18.2816 5.26303C18.5494 3.99743 17.7671 2.8865 16.479 2.41313L16.4785 2.41296L16.4466 2.40485L16.4462 2.40474C15.989 2.31146 15.5318 2.33453 15.107 2.45473L15.1056 2.45513L15.1043 2.45602C14.232 3.04569 13.6228 3.94261 13.3551 4.94192C13.3262 5.04979 13.3012 5.15885 13.2804 5.2689L13.2789 5.27715L13.2869 5.2798C13.6718 5.40731 13.8955 5.81383 13.7892 6.21052C13.7167 6.48081 13.5091 6.67802 13.2587 6.75092L13.2506 6.75328L13.2518 6.76159C13.2974 7.06203 13.3743 7.36111 13.4853 7.6539L13.4854 7.65419C13.605 7.94195 13.763 8.196 13.9493 8.42037L13.9513 8.42272L18.1451 9.54644C18.3888 9.61175 18.6358 9.56271 18.8307 9.43327L18.8335 9.43136L18.8346 9.42797C18.8357 9.42424 18.9462 9.04989 19.081 8.54654C19.2043 8.08624 19.3481 7.51805 19.4472 7.02649Z" fill="#C6C6C6"/>
<path d="M13.5031 7.64702C13.3937 7.35807 13.3176 7.06298 13.2721 6.76647C13.525 6.68989 13.7342 6.48954 13.8076 6.21554C13.9158 5.81177 13.6903 5.39843 13.3009 5.26471C13.3213 5.15783 13.3455 5.05178 13.3736 4.94693C13.6402 3.95185 14.2467 3.05886 15.1146 2.47209L15.1643 2.43851L15.1066 2.45487C14.6704 2.57834 14.266 2.80871 13.934 3.11698C13.7413 3.29589 13.5729 3.50132 13.4369 3.72645L12.8798 3.57716C12.4471 3.46123 12.0037 3.70379 11.8623 4.12226C11.8566 4.13914 11.8504 4.15614 11.8455 4.17429L11.5687 5.20727L11.143 6.79604C11.0223 7.24654 11.2897 7.70959 11.7402 7.83032L12.1957 7.95237L13.9834 8.43139L13.964 8.40813C13.7789 8.18519 13.622 7.93287 13.5031 7.64702Z" fill="#ACACAC"/>
<path d="M18.1598 6.56325C17.7381 6.45025 17.3046 6.7005 17.1916 7.12222C17.0786 7.54393 17.3289 7.9774 17.7506 8.09039C18.1723 8.20339 18.6057 7.95313 18.7187 7.53141C18.8317 7.1097 18.5815 6.67624 18.1598 6.56325Z" fill="#ACACAC"/>
<path d="M13.2718 5.39064C12.9573 5.30636 12.634 5.49302 12.5497 5.80756C12.4654 6.1221 12.6521 6.44541 12.9666 6.52968C13.2811 6.61396 13.6044 6.42731 13.6887 6.11276C13.773 5.79822 13.5863 5.47493 13.2718 5.39064Z" fill="#8C8C8B"/>
<path d="M18.1829 6.70656C17.8683 6.62228 17.545 6.80894 17.4608 7.12348C17.3765 7.43802 17.5631 7.76132 17.8777 7.8456C18.1922 7.92988 18.5155 7.74322 18.5998 7.42868C18.6841 7.11414 18.4974 6.79085 18.1829 6.70656Z" fill="#8C8C8B"/>
<path d="M14.3269 5.16748L14.276 5.35752L17.1853 6.13707L17.2362 5.94703L17.227 5.94455L14.3269 5.16748Z" fill="#8C8C8B"/>
<path d="M14.1584 5.79662L14.1677 5.79911L17.0678 6.57617L17.1187 6.38612L14.2094 5.60657L14.1584 5.79662Z" fill="#8C8C8B"/>
<path d="M14.0408 6.23559L16.9501 7.01514L16.9526 7.00584L17.001 6.82508L14.0917 6.04553L14.0408 6.23559Z" fill="#8C8C8B"/>
<path d="M13.9231 6.67455L13.9324 6.67704L16.8325 7.4541L16.8834 7.26405L13.9741 6.4845L13.9231 6.67455Z" fill="#8C8C8B"/>
<path d="M13.8055 7.1135L13.8148 7.11599L16.7149 7.89305L16.7658 7.70301L13.8565 6.92346L13.8055 7.1135Z" fill="#8C8C8B"/>
<path d="M16.3171 3.55851C15.6862 3.38949 15.0418 3.60071 14.6273 4.0507L14.6165 4.06238L14.6319 4.06649L17.5379 4.84517L17.5345 4.82968C17.4005 4.23271 16.948 3.72757 16.3171 3.55851Z" fill="white"/>
<path d="M13.5853 5.92489C13.59 5.90752 13.5908 5.88881 13.587 5.87011C13.5776 5.82394 13.5426 5.78925 13.4998 5.77781C13.4825 5.77315 13.4638 5.77232 13.445 5.77615L12.7425 5.91905C12.6963 5.92844 12.6616 5.96341 12.6502 6.00614C12.6455 6.0235 12.6446 6.04219 12.6485 6.06097C12.6579 6.1071 12.6929 6.14178 12.7356 6.15321C12.753 6.15786 12.7717 6.15866 12.7904 6.15488L13.493 6.01199C13.5392 6.00262 13.5739 5.96764 13.5853 5.92489Z" fill="#C6C6C6"/>
<path d="M18.4964 7.24081C18.5011 7.22344 18.5019 7.20473 18.4981 7.18603C18.4887 7.13986 18.4537 7.10516 18.411 7.09373C18.3936 7.08907 18.3749 7.08824 18.3562 7.09207L17.6536 7.23497C17.6074 7.24436 17.5727 7.27933 17.5613 7.32206C17.5566 7.33942 17.5558 7.35811 17.5597 7.37689C17.5691 7.42302 17.604 7.4577 17.6468 7.46913C17.6641 7.47378 17.6828 7.47458 17.7016 7.4708L18.4042 7.32791C18.4503 7.31854 18.485 7.28356 18.4964 7.24081Z" fill="#C6C6C6"/>
</svg>
